<?xml version="1.0" encoding="UTF-8"?>
<svg id="Layer_2" data-name="Layer 2" xmlns="http://www.w3.org/2000/svg" viewBox="0 0 800.47 211.71">
  <g id="Layer_1-2" data-name="Layer 1">
    <g id="Group_502" data-name="Group 502">
      <path id="Path_203" data-name="Path 203" d="M41.27,211.7l-5.82-6.53C11.26,178.07,0,151.28,0,120.83c.26-28.95,9.14-57.17,25.49-81.07C43.24,14.12,66.26,0,90.29,0s47.08,14.12,64.83,39.76c16.36,23.9,25.24,52.12,25.5,81.08,0,30.44-11.26,57.24-35.45,84.34l-5.83,6.53-11.72-11.72,5.2-5.83c21.32-23.88,31.25-47.18,31.25-73.32-.35-25.58-8.19-50.5-22.56-71.66-14.57-21.04-32.76-32.63-51.21-32.63s-36.65,11.59-51.21,32.63c-14.36,21.17-22.2,46.08-22.55,71.66,0,23.69,8.16,45.05,25.57,66.63l19.06-19.05-24.24-24.24,24.24-24.24-24.24-24.24,11.68-11.69,35.93,35.93-24.24,24.24,24.24,24.24-43.27,43.28Z"/>
    </g>
    <g id="Component_64_74" data-name="Component 64 74">
      <path id="Path_204" data-name="Path 204" d="M287.29,122.95c5.48-3.27,8.69-9.32,8.32-15.69.31-6.03-1.84-11.93-5.96-16.34-4.47-4.46-10.56-6.45-20.55-6.45h-28.89v84.44h30.8c9.83,0,16.57-1.97,21.8-6.87,4.91-4.9,7.52-11.66,7.15-18.58,0-10.26-4.24-17-12.66-20.5ZM255.9,98.87h12.81c7.48,0,11.28,3.05,11.28,9.25s-3.78,9.25-11.28,9.25h-12.82v-18.5ZM270.39,154.35h-14.48v-22.91h14.48c9.05,0,13.61,3.78,13.61,11.45s-4.58,11.46-13.62,11.46h0Z"/>
      <path id="Path_205" data-name="Path 205" d="M342.94,107.14c-7.48.23-14.29,4.35-17.97,10.86v-9.89h-14.96v60.8h14.96v-21.59c0-18.46,6.75-26.78,16.28-26.78,2.21-.01,4.37.57,6.27,1.69l2.77-13.87c-2.38-.78-4.86-1.19-7.36-1.2Z"/>
      <path id="Path_206" data-name="Path 206" d="M399.7,132.59c0-17.02-8.57-25.45-25.57-25.45-7.77-.38-15.22,3.08-19.94,9.26l9.72,9.73c1.83-3.95,5.86-6.41,10.21-6.21,7.12,0,10.62,3.03,10.62,8.93v2.65h-8.53c-9.21,0-15.53,1.27-20.59,5.2-4.56,3.48-7.15,8.96-6.95,14.7,0,11.7,8.61,18.48,20.36,18.48,6.57.15,12.87-2.59,17.23-7.51l7.39,8.81,10.97-9.38-4.94-5.97.02-23.24ZM380.77,154.05c-2.63,2.21-6,3.33-9.42,3.14-5.1,0-7.6-3-7.6-6.52-.13-2.09.77-4.1,2.42-5.39,2.83-1.89,6.25-2.69,9.63-2.23h8.95c.48,4.09-.99,8.17-3.97,11h0Z"/>
      <path id="Path_207" data-name="Path 207" d="M444.56,107.14c-7.12-.12-13.89,3.11-18.28,8.72v-7.76h-14.96v60.8h14.96v-24.54c-.45-6.36.85-12.73,3.78-18.39,2.1-3.62,5.91-5.9,10.09-6.05,5.4,0,8.7,3.4,8.7,10.56v38.43h14.96v-41c.46-5.66-1.47-11.25-5.32-15.42-3.69-3.65-8.74-5.59-13.93-5.34Z"/>
      <path id="Path_208" data-name="Path 208" d="M746.92,108.1h-14.96v26.56c0,9.05-.38,13.35-2.99,17.28-2.2,3.37-6.01,5.32-10.03,5.14-5.76,0-9.54-4.13-9.54-11.47v-37.51h-14.96v38.41c0,9.67,2.05,14.05,5.97,17.8,4.25,3.85,9.85,5.85,15.58,5.55,6.62.09,12.97-2.63,17.48-7.49l7.4,8.82,10.97-9.38-4.95-5.97.02-47.74Z"/>
      <path id="Path_209" data-name="Path 209" d="M772.57,124.15c0-2.93,2.43-4.95,6.12-4.95,4.07-.02,7.8,2.24,9.68,5.85l10.35-8.8c-4.94-6.01-12.41-9.38-20.19-9.11-12.38,0-20.13,8.72-20.13,18.08,0,21.73,27.87,16.24,27.87,26.73,0,3.78-2.99,5.85-7.56,5.85-5.76-.14-10.89-3.7-13.02-9.06l-10.33,8.85c5.17,8.08,14.24,12.8,23.83,12.4,12.4,0,21.29-7.49,21.29-19.52,0-21.79-27.9-16.68-27.9-26.31Z"/>
      <path id="Path_210" data-name="Path 210" d="M529.53,84.45h-14.96v29.12c-4.07-4.34-9.84-6.69-15.79-6.43-14.5,0-26.14,12.48-26.14,31.36,0,19.81,11.18,31.36,25.74,31.36,6.73.29,13.24-2.43,17.78-7.41l7.33,8.74,10.97-9.38-4.93-5.96v-71.41ZM511.92,152.26c-2.35,3.14-6.09,4.94-10.01,4.82-3.97.05-7.73-1.79-10.14-4.94-5.31-8.31-5.31-18.95,0-27.26,2.41-3.16,6.17-4.99,10.14-4.95,3.95-.11,7.71,1.71,10.06,4.89,5.25,8.4,5.23,19.06-.05,27.44h0Z"/>
      <path id="Path_211" data-name="Path 211" d="M660.5,107.16c-6.4-.22-12.57,2.41-16.84,7.19v-6.26h-14.94v85.43h14.96v-30.05c4.07,4.34,9.84,6.69,15.79,6.43,14.78,0,26.14-13.02,26.14-31.36,0-19.82-10.87-31.38-25.1-31.38ZM666.46,152.17c-2.41,3.16-6.16,4.99-10.13,4.95-3.95.11-7.71-1.71-10.06-4.89-5.26-8.4-5.23-19.06.05-27.44,2.35-3.14,6.09-4.94,10.01-4.82,3.96-.04,7.72,1.79,10.12,4.94,5.31,8.31,5.31,18.95,0,27.26h.01Z"/>
      <path id="Path_212" data-name="Path 212" d="M579.23,83.5c-24.45,0-39.81,17.77-39.81,43.18s15.35,43.18,39.81,43.18,39.8-17.77,39.8-43.18-15.35-43.18-39.8-43.18ZM579.23,155.73c-14.72,0-23.95-11.5-23.95-29.04s9.24-29.04,23.95-29.04,23.95,11.5,23.95,29.04-9.24,29.03-23.95,29.03h0Z"/>
    </g>
  </g>
</svg>