<?xml version="1.0" encoding="UTF-8"?>
<svg id="Layer_2" data-name="Layer 2" xmlns="http://www.w3.org/2000/svg" viewBox="0 0 180.62 211.71">
  <g id="Layer_1-2" data-name="Layer 1">
    <g id="Group_502" data-name="Group 502">
      <path id="Path_203" data-name="Path 203" d="M41.27,211.7l-5.82-6.53C11.26,178.07,0,151.28,0,120.83c.26-28.95,9.14-57.17,25.49-81.07C43.24,14.12,66.26,0,90.29,0s47.08,14.12,64.83,39.76c16.36,23.9,25.24,52.12,25.5,81.08,0,30.44-11.26,57.24-35.45,84.34l-5.83,6.53-11.72-11.72,5.2-5.83c21.32-23.88,31.25-47.18,31.25-73.32-.35-25.58-8.19-50.5-22.56-71.66-14.57-21.04-32.76-32.63-51.21-32.63s-36.65,11.59-51.21,32.63c-14.36,21.17-22.2,46.08-22.55,71.66,0,23.69,8.16,45.05,25.57,66.63l19.06-19.05-24.24-24.24,24.24-24.24-24.24-24.24,11.68-11.69,35.93,35.93-24.24,24.24,24.24,24.24-43.27,43.28Z"/>
    </g>
  </g>
</svg>